<svg width="40" height="40" viewBox="0 0 40 40" fill="none" xmlns="http://www.w3.org/2000/svg">
<g clip-path="url(#clip0_7_236)">
<path d="M11.6666 8.33333V3.33333C11.6666 2.8913 11.8422 2.46738 12.1548 2.15482C12.4674 1.84226 12.8913 1.66666 13.3333 1.66666H26.6666C27.1087 1.66666 27.5326 1.84226 27.8452 2.15482C28.1577 2.46738 28.3333 2.8913 28.3333 3.33333V8.33333H35C35.442 8.33333 35.8659 8.50893 36.1785 8.82149C36.4911 9.13405 36.6666 9.55797 36.6666 10V33.3333C36.6666 33.7754 36.4911 34.1993 36.1785 34.5118C35.8659 34.8244 35.442 35 35 35H4.99998C4.55795 35 4.13403 34.8244 3.82147 34.5118C3.50891 34.1993 3.33331 33.7754 3.33331 33.3333V10C3.33331 9.55797 3.50891 9.13405 3.82147 8.82149C4.13403 8.50893 4.55795 8.33333 4.99998 8.33333H11.6666ZM6.66665 26.6667V31.6667H33.3333V26.6667H6.66665ZM6.66665 23.3333H33.3333V11.6667H6.66665V23.3333ZM15 5V8.33333H25V5H15ZM18.3333 18.3333H21.6666V21.6667H18.3333V18.3333Z" fill="#688DED"/>
</g>
<defs>
<clipPath id="clip0_7_236">
<rect width="40" height="40" fill="white"/>
</clipPath>
</defs>
</svg>
