<svg width="40" height="40" viewBox="0 0 40 40" fill="none" xmlns="http://www.w3.org/2000/svg">
<g clip-path="url(#clip0_7_232)">
<path d="M28.3333 5.00001H35C35.442 5.00001 35.8659 5.1756 36.1785 5.48816C36.4911 5.80072 36.6666 6.22464 36.6666 6.66667V33.3333C36.6666 33.7754 36.4911 34.1993 36.1785 34.5118C35.8659 34.8244 35.442 35 35 35H4.99998C4.55795 35 4.13403 34.8244 3.82147 34.5118C3.50891 34.1993 3.33331 33.7754 3.33331 33.3333V6.66667C3.33331 6.22464 3.50891 5.80072 3.82147 5.48816C4.13403 5.1756 4.55795 5.00001 4.99998 5.00001H11.6666V1.66667H15V5.00001H25V1.66667H28.3333V5.00001ZM33.3333 15V8.33334H28.3333V11.6667H25V8.33334H15V11.6667H11.6666V8.33334H6.66665V15H33.3333ZM33.3333 18.3333H6.66665V31.6667H33.3333V18.3333ZM9.99998 21.6667H18.3333V28.3333H9.99998V21.6667Z" fill="#688DED"/>
</g>
<defs>
<clipPath id="clip0_7_232">
<rect width="40" height="40" fill="white"/>
</clipPath>
</defs>
</svg>
