<svg width="40" height="40" viewBox="0 0 40 40" fill="none" xmlns="http://www.w3.org/2000/svg">
<g clip-path="url(#clip0_7_240)">
<path d="M11.6666 8.33333V3.33333C11.6666 2.8913 11.8422 2.46738 12.1548 2.15482C12.4674 1.84226 12.8913 1.66666 13.3333 1.66666H26.6666C27.1087 1.66666 27.5326 1.84226 27.8452 2.15482C28.1577 2.46738 28.3333 2.8913 28.3333 3.33333V8.33333H35C35.442 8.33333 35.8659 8.50893 36.1785 8.82149C36.4911 9.13405 36.6666 9.55797 36.6666 10V33.3333C36.6666 33.7754 36.4911 34.1993 36.1785 34.5118C35.8659 34.8244 35.442 35 35 35H4.99998C4.55795 35 4.13403 34.8244 3.82147 34.5118C3.50891 34.1993 3.33331 33.7754 3.33331 33.3333V10C3.33331 9.55797 3.50891 9.13405 3.82147 8.82149C4.13403 8.50893 4.55795 8.33333 4.99998 8.33333H11.6666ZM26.6666 25H21.6666V26.6667H18.3333V25H13.3333V31.6667H26.6666V25ZM13.3333 11.6667V21.6667H18.3333V20H21.6666V21.6667H26.6666V11.6667H13.3333ZM9.99998 21.6667V11.6667H6.66665V21.6667H9.99998ZM30 21.6667H33.3333V11.6667H30V21.6667ZM9.99998 25H6.66665V31.6667H9.99998V25ZM30 25V31.6667H33.3333V25H30ZM15 5V8.33333H25V5H15Z" fill="#688DED"/>
</g>
<defs>
<clipPath id="clip0_7_240">
<rect width="40" height="40" fill="white"/>
</clipPath>
</defs>
</svg>
