<svg width="24" height="24" viewBox="0 0 24 24" fill="none" xmlns="http://www.w3.org/2000/svg">
<path d="M11.8724 1.99971C14.7264 1.99971 17.0544 4.25638 17.169 7.08233L17.1734 7.3008L17.1741 8.8769C18.9503 9.49375 20.2252 11.182 20.2252 13.1686V17.4576C20.2252 19.9665 18.1917 21.9996 15.6832 21.9996H8.04221C5.53369 21.9996 3.50021 19.9665 3.50021 17.4576V13.1686C3.50021 11.1816 4.77562 9.49311 6.55233 8.87655L6.55241 7.27752C6.56523 4.34953 8.94827 1.987 11.8724 1.99971ZM15.6832 10.1266H8.04221C6.36205 10.1266 5.00021 11.4882 5.00021 13.1686V17.4576C5.00021 19.138 6.36205 20.4996 8.04221 20.4996H15.6832C17.3634 20.4996 18.7252 19.138 18.7252 17.4576V13.1686C18.7252 11.4882 17.3634 10.1266 15.6832 10.1266ZM11.8629 13.4527C12.2426 13.4527 12.5564 13.7349 12.6061 14.1009L12.6129 14.2027V16.4237C12.6129 16.8379 12.2771 17.1737 11.8629 17.1737C11.4832 17.1737 11.1694 16.8916 11.1198 16.5255L11.1129 16.4237V14.2027C11.1129 13.7885 11.4487 13.4527 11.8629 13.4527ZM11.8691 3.49975C9.83576 3.49089 8.16876 5.08027 8.05821 7.08549L8.05241 7.2808L8.05221 8.62566H15.6732L15.6734 7.3008C15.6734 5.20201 13.9712 3.49976 11.8691 3.49975Z" fill="white"/>
</svg>
